# xmcd
# 
# Track frame offsets:
#     182
#     11432
#     23507
#     36985
#     49645
#     62300
#     76467
#     87740
#     110415
#     122525
#     135707
#     146707
#     155932
#     167677
#     178322
#     189332
#     198005
#     207015
#     218092
#     228485
#     238140
#     248992
#     259785
#     270115
#     283532
#     295360
#     304367
#     314200
# 
# Disc length: 4335
# 
# Revision: 4
# Processed by: cddbd v1.5.2PL0 Copyright (c) Steve Scherf et al.
# Submitted via: fre:ac v1.0.31
# 
DISCID=9a10ed1c
DTITLE=Columbia Blues - Joe Turner Rhythm and Blues Years
DYEAR=1986
DGENRE=Blues
TTITLE0=Don't You Cry (mono)
TTITLE1=Poor Lover's Blues (mono)
TTITLE2=Still In Love (mono)
TTITLE3=TV Mama (mono)
TTITLE4=Married Woman (mono)
TTITLE5=You Know I Love You (mono)
TTITLE6=Midnight Cannonball (mono)
TTITLE7=In The Evening (mono)
TTITLE8=Morning Noon and Night (mono)
TTITLE9=Ti-Ri-Lee (mono)
TTITLE10=Lipstick, Powder And Paint (mono)
TTITLE11=Rock A While (mono)
TTITLE12=After A While (mono)
TTITLE13=Trouble In Mind (mono)
TTITLE14=World Of Trouble (mono)
TTITLE15=Love Roller Coaster (mono)
TTITLE16=I Need A Girl (mono)
TTITLE17=Teenage Letter (mono)
TTITLE18=Wee Baby Blues (mono)
TTITLE19=Jump For Joy (mono)
TTITLE20=Sweet Sue (mono)
TTITLE21=My Reasons For Living (mono)
TTITLE22=Love Oh Careless Love (mono)
TTITLE23=Got You On My Mind (mono)
TTITLE24=Chains Of Love (mono)
TTITLE25=My Little Honeydripper (mono)
TTITLE26=Tomorrow Night (mono)
TTITLE27=Honey, Hush (mono)
EXTD=
EXTT0=
EXTT1=
EXTT2=
EXTT3=
EXTT4=
EXTT5=
EXTT6=
EXTT7=
EXTT8=
EXTT9=
EXTT10=
EXTT11=
EXTT12=
EXTT13=
EXTT14=
EXTT15=
EXTT16=
EXTT17=
EXTT18=
EXTT19=
EXTT20=
EXTT21=
EXTT22=
EXTT23=
EXTT24=
EXTT25=
EXTT26=
EXTT27=
PLAYORDER=
